<svg xmlns="http://www.w3.org/2000/svg" viewBox="2108 462 19 19">
  <defs>
    <style>
      .cls-1 {
        fill: #6dbeef;
      }
    </style>
  </defs>
  <g id="chart-bars" transform="translate(2108 461)">
    <path id="Path_32" data-name="Path 32" class="cls-1" d="M17.5,20H1.5A1.5,1.5,0,0,1,0,18.5V2.5A1.5,1.5,0,0,1,1.5,1h16A1.5,1.5,0,0,1,19,2.5v16A1.5,1.5,0,0,1,17.5,20ZM1.5,2a.5.5,0,0,0-.5.5v16a.5.5,0,0,0,.5.5h16a.5.5,0,0,0,.5-.5V2.5a.5.5,0,0,0-.5-.5Z"/>
    <path id="Path_33" data-name="Path 33" class="cls-1" d="M6.5,17h-2a.5.5,0,0,1-.5-.5v-9A.5.5,0,0,1,4.5,7h2a.5.5,0,0,1,.5.5v9A.5.5,0,0,1,6.5,17ZM5,16H6V8H5Z"/>
    <path id="Path_34" data-name="Path 34" class="cls-1" d="M10.5,17h-2a.5.5,0,0,1-.5-.5V4.5A.5.5,0,0,1,8.5,4h2a.5.5,0,0,1,.5.5v12A.5.5,0,0,1,10.5,17ZM9,16h1V5H9Z"/>
    <path id="Path_35" data-name="Path 35" class="cls-1" d="M14.5,17h-2a.5.5,0,0,1-.5-.5v-5a.5.5,0,0,1,.5-.5h2a.5.5,0,0,1,.5.5v5A.5.5,0,0,1,14.5,17ZM13,16h1V12H13Z"/>
  </g>
</svg>
