<svg xmlns="http://www.w3.org/2000/svg" viewBox="7996.1 50.1 24.8 24.8">
  <defs>
    <style>
      .cls-1 {
        fill: #7fac4e;
      }

      .cls-2 {
        fill: #fff;
      }
    </style>
  </defs>
  <g id="Group_27" data-name="Group 27" transform="translate(6160)">
    <circle id="Ellipse_3" data-name="Ellipse 3" class="cls-1" cx="12.4" cy="12.4" r="12.4" transform="translate(1836.1 50.1)"/>
    <g id="power-switch" transform="translate(1840.765 53)">
      <path id="Path_26" data-name="Path 26" class="cls-2" d="M9.382,9.647A.382.382,0,0,1,9,9.265V2.382a.382.382,0,1,1,.765,0V9.265A.382.382,0,0,1,9.382,9.647Z" transform="translate(-1.647)"/>
      <path id="Path_27" data-name="Path 27" class="cls-2" d="M7.735,15.539A5.736,5.736,0,0,1,3.16,6.345,5.779,5.779,0,0,1,6.1,4.306a.383.383,0,0,1,.218.733,4.971,4.971,0,1,0,2.84,0,.383.383,0,0,1,.218-.733,5.775,5.775,0,0,1,2.936,2.039,5.736,5.736,0,0,1-4.575,9.194Z" transform="translate(0 -0.539)"/>
    </g>
  </g>
</svg>
