<svg xmlns="http://www.w3.org/2000/svg" viewBox="2512 45.1 30.96 27.963">
  <defs>
    <style>
      .cls-1 {
        fill: #aeaeae;
      }
    </style>
  </defs>
  <path id="home" class="cls-1" d="M30.762,17.771,17.094,2.665a2.156,2.156,0,0,0-1.613-.728h0a2.161,2.161,0,0,0-1.613.728L.2,17.771a.773.773,0,1,0,1.147,1.037l3.3-3.643V27.578A2.325,2.325,0,0,0,6.965,29.9H23.994a2.325,2.325,0,0,0,2.322-2.322V15.165l3.3,3.643a.774.774,0,1,0,1.147-1.039ZM18.577,28.352H12.385V21.386a.774.774,0,0,1,.774-.774H17.8a.774.774,0,0,1,.774.774Zm6.192-.774a.774.774,0,0,1-.774.774h-3.87V21.386A2.325,2.325,0,0,0,17.8,19.063H13.159a2.325,2.325,0,0,0-2.322,2.322v6.966H6.966a.774.774,0,0,1-.774-.774V13.455L15.016,3.7a.6.6,0,0,1,.929,0l8.824,9.753Z" transform="translate(2512 43.163)"/>
</svg>
