<svg xmlns="http://www.w3.org/2000/svg" viewBox="7769.1 50.1 24.8 24.8">
  <defs>
    <style>
      .cls-1 {
        fill: #6dbeef;
      }

      .cls-2 {
        fill: #fff;
      }
    </style>
  </defs>
  <g id="Group_25" data-name="Group 25" transform="translate(6160)">
    <circle id="Ellipse_2" data-name="Ellipse 2" class="cls-1" cx="12.4" cy="12.4" r="12.4" transform="translate(1609.1 50.1)"/>
    <g id="user" transform="translate(1615.06 55.446)">
      <path id="Path_24" data-name="Path 24" class="cls-2" d="M7.728,7.457a3.728,3.728,0,1,1,3.728-3.728A3.732,3.732,0,0,1,7.728,7.457Zm0-6.779a3.05,3.05,0,1,0,3.05,3.05A3.054,3.054,0,0,0,7.728.678Z" transform="translate(-1.289)"/>
      <path id="Path_25" data-name="Path 25" class="cls-2" d="M11.863,17.423H1.017A1.018,1.018,0,0,1,0,16.406a4.048,4.048,0,0,1,.83-2.237,4.832,4.832,0,0,1,1.945-1.5A9.046,9.046,0,0,1,6.44,12a9.046,9.046,0,0,1,3.665.665,4.838,4.838,0,0,1,1.945,1.5,4.048,4.048,0,0,1,.83,2.237A1.018,1.018,0,0,1,11.863,17.423ZM6.44,12.678c-2.364,0-4.108.646-5.044,1.868a3.444,3.444,0,0,0-.718,1.861.339.339,0,0,0,.339.338H11.863a.339.339,0,0,0,.339-.339,3.431,3.431,0,0,0-.718-1.86C10.547,13.324,8.8,12.678,6.44,12.678Z" transform="translate(0 -3.866)"/>
    </g>
  </g>
</svg>
