<svg xmlns="http://www.w3.org/2000/svg" viewBox="6642.399 534.177 15.701 20.531">
  <defs>
    <style>
      .cls-1 {
        fill: #4d79bb;
      }
    </style>
  </defs>
  <path id="lock" class="cls-1" d="M16.889,9.246h-.6V7.435a5.435,5.435,0,0,0-10.87,0V9.246h-.6A1.814,1.814,0,0,0,3,11.058V20.72a1.814,1.814,0,0,0,1.812,1.812H16.889A1.814,1.814,0,0,0,18.7,20.72V11.058A1.814,1.814,0,0,0,16.889,9.246ZM6.623,7.435a4.227,4.227,0,0,1,8.454,0V9.246H6.623ZM17.493,20.72a.6.6,0,0,1-.6.6H4.812a.6.6,0,0,1-.6-.6V11.058a.6.6,0,0,1,.6-.6H16.889a.6.6,0,0,1,.6.6Z" transform="translate(6639.4 532.177)"/>
</svg>
