<svg xmlns="http://www.w3.org/2000/svg" viewBox="2106 246 23 23">
  <defs>
    <style>
      .cls-1 {
        fill: #6dbeef;
      }
    </style>
  </defs>
  <g id="pie-chart" transform="translate(2106 245)">
    <path id="Path_28" data-name="Path 28" class="cls-1" d="M10.289,23.579A10.289,10.289,0,0,1,3.014,6.014,10.226,10.226,0,0,1,10.289,3a.605.605,0,0,1,.605.605v9.079h9.079a.605.605,0,0,1,.605.605A10.291,10.291,0,0,1,10.289,23.579ZM9.684,4.23a9.079,9.079,0,1,0,9.665,9.665h-9.06a.605.605,0,0,1-.605-.605Z" transform="translate(0 0.421)"/>
    <path id="Path_29" data-name="Path 29" class="cls-1" d="M20.289,11.895H10.605A.605.605,0,0,1,10,11.289V1.605A.605.605,0,0,1,10.605,1,10.291,10.291,0,0,1,20.895,11.289.605.605,0,0,1,20.289,11.895Zm-9.079-1.211h8.454A9.1,9.1,0,0,0,11.211,2.23Z" transform="translate(2.105)"/>
  </g>
</svg>
