<svg xmlns="http://www.w3.org/2000/svg" viewBox="6679 443 15 20">
  <defs>
    <style>
      .cls-1 {
        fill: #4d79bb;
      }
    </style>
  </defs>
  <g id="trash" transform="translate(6677 443)">
    <path id="Path_217" data-name="Path 217" class="cls-1" d="M15.5,2H12V1.5A1.5,1.5,0,0,0,10.5,0h-2A1.5,1.5,0,0,0,7,1.5V2H3.5A1.5,1.5,0,0,0,2,3.5v1A1.5,1.5,0,0,0,3,5.914V18.5A1.5,1.5,0,0,0,4.5,20h10A1.5,1.5,0,0,0,16,18.5V5.914A1.5,1.5,0,0,0,17,4.5v-1A1.5,1.5,0,0,0,15.5,2ZM8,1.5A.5.5,0,0,1,8.5,1h2a.5.5,0,0,1,.5.5V2H8ZM14.5,19H4.5a.5.5,0,0,1-.5-.5V6H15V18.5A.5.5,0,0,1,14.5,19ZM16,4.5a.5.5,0,0,1-.5.5H3.5A.5.5,0,0,1,3,4.5v-1A.5.5,0,0,1,3.5,3h12a.5.5,0,0,1,.5.5Z"/>
    <path id="Path_218" data-name="Path 218" class="cls-1" d="M12.5,7a.5.5,0,0,0-.5.5v10a.5.5,0,0,0,1,0V7.5A.5.5,0,0,0,12.5,7Z"/>
    <path id="Path_219" data-name="Path 219" class="cls-1" d="M9.5,7a.5.5,0,0,0-.5.5v10a.5.5,0,0,0,1,0V7.5A.5.5,0,0,0,9.5,7Z"/>
    <path id="Path_220" data-name="Path 220" class="cls-1" d="M6.5,7a.5.5,0,0,0-.5.5v10a.5.5,0,0,0,1,0V7.5A.5.5,0,0,0,6.5,7Z"/>
  </g>
</svg>
