<svg xmlns="http://www.w3.org/2000/svg" viewBox="2108 320 20 17">
  <defs>
    <style>
      .cls-1 {
        fill: #6dbeef;
      }
    </style>
  </defs>
  <path id="briefcase" class="cls-1" d="M18.5,5H14V3.5A1.5,1.5,0,0,0,12.5,2h-5A1.5,1.5,0,0,0,6,3.5V5H1.5A1.5,1.5,0,0,0,0,6.5v11A1.5,1.5,0,0,0,1.5,19h17A1.5,1.5,0,0,0,20,17.5V6.5A1.5,1.5,0,0,0,18.5,5ZM7,3.5A.5.5,0,0,1,7.5,3h5a.5.5,0,0,1,.5.5V5H7ZM1.5,6h17a.5.5,0,0,1,.5.5V14H17v-.5a.5.5,0,0,0-.5-.5h-2a.5.5,0,0,0-.5.5V14H6v-.5a.5.5,0,0,0-.5-.5h-2a.5.5,0,0,0-.5.5V14H1V6.5A.5.5,0,0,1,1.5,6ZM16,14v1H15V14ZM5,14v1H4V14Zm13.5,4H1.5a.5.5,0,0,1-.5-.5V15H3v.5a.5.5,0,0,0,.5.5h2a.5.5,0,0,0,.5-.5V15h8v.5a.5.5,0,0,0,.5.5h2a.5.5,0,0,0,.5-.5V15h2v2.5A.5.5,0,0,1,18.5,18Z" transform="translate(2108 318)"/>
</svg>
