<svg xmlns="http://www.w3.org/2000/svg" viewBox="6641 444 19 17.998">
  <defs>
    <style>
      .cls-1 {
        fill: #5780bf;
      }
    </style>
  </defs>
  <path id="database" class="cls-1" d="M18.067,1.609A7.5,7.5,0,0,0,16,.751,25.356,25.356,0,0,0,9.5,0,25.4,25.4,0,0,0,3,.751a7.468,7.468,0,0,0-2.069.858A1.715,1.715,0,0,0,0,3V15a1.714,1.714,0,0,0,.933,1.391A7.5,7.5,0,0,0,3,17.249,25.356,25.356,0,0,0,9.5,18a25.352,25.352,0,0,0,6.5-.751,7.468,7.468,0,0,0,2.069-.858A1.714,1.714,0,0,0,19,15V3a1.714,1.714,0,0,0-.933-1.391Zm-14.8.105A24.368,24.368,0,0,1,9.5,1a24.363,24.363,0,0,1,6.23.714C17.525,2.213,18,2.773,18,3s-.474.787-2.27,1.286A24.368,24.368,0,0,1,9.5,5a24.363,24.363,0,0,1-6.23-.714C1.475,3.787,1,3.227,1,3s.474-.787,2.27-1.286ZM15.73,16.286A24.368,24.368,0,0,1,9.5,17a24.363,24.363,0,0,1-6.23-.714C1.475,15.787,1,15.227,1,15V12.434a7.711,7.711,0,0,0,2,.816A25.356,25.356,0,0,0,9.5,14a25.352,25.352,0,0,0,6.5-.751,7.7,7.7,0,0,0,2-.816V15c0,.227-.474.787-2.27,1.286Zm0-4A24.368,24.368,0,0,1,9.5,13a24.363,24.363,0,0,1-6.23-.714C1.475,11.787,1,11.227,1,11V8.434A7.711,7.711,0,0,0,3,9.25,25.356,25.356,0,0,0,9.5,10,25.4,25.4,0,0,0,16,9.25a7.7,7.7,0,0,0,2-.816V11C18,11.227,17.526,11.787,15.73,12.286Zm0-4A24.368,24.368,0,0,1,9.5,9a24.363,24.363,0,0,1-6.23-.714C1.475,7.787,1,7.227,1,7V4.434A7.711,7.711,0,0,0,3,5.25,25.356,25.356,0,0,0,9.5,6,25.4,25.4,0,0,0,16,5.25a7.7,7.7,0,0,0,2-.816V7C18,7.227,17.526,7.787,15.73,8.286Z" transform="translate(6641 443.999)"/>
</svg>
