<svg xmlns="http://www.w3.org/2000/svg" viewBox="2113 571 17 17">
  <defs>
    <style>
      .cls-1 {
        fill: #6dbeef;
      }
    </style>
  </defs>
  <g id="dice" transform="translate(2112 569)">
    <path id="Path_221" data-name="Path 221" class="cls-1" d="M5.5,16A1.5,1.5,0,1,1,7,14.5,1.5,1.5,0,0,1,5.5,16Zm0-2a.5.5,0,1,0,.5.5A.5.5,0,0,0,5.5,14Z"/>
    <path id="Path_222" data-name="Path 222" class="cls-1" d="M5.5,12A1.5,1.5,0,1,1,7,10.5,1.5,1.5,0,0,1,5.5,12Zm0-2a.5.5,0,1,0,.5.5A.5.5,0,0,0,5.5,10Z"/>
    <path id="Path_223" data-name="Path 223" class="cls-1" d="M5.5,8A1.5,1.5,0,1,1,7,6.5,1.5,1.5,0,0,1,5.5,8Zm0-2a.5.5,0,1,0,.5.5A.5.5,0,0,0,5.5,6Z"/>
    <path id="Path_224" data-name="Path 224" class="cls-1" d="M13.5,8A1.5,1.5,0,1,1,15,6.5,1.5,1.5,0,0,1,13.5,8Zm0-2a.5.5,0,1,0,.5.5A.5.5,0,0,0,13.5,6Z"/>
    <path id="Path_225" data-name="Path 225" class="cls-1" d="M13.5,12A1.5,1.5,0,1,1,15,10.5,1.5,1.5,0,0,1,13.5,12Zm0-2a.5.5,0,1,0,.5.5A.5.5,0,0,0,13.5,10Z"/>
    <path id="Path_226" data-name="Path 226" class="cls-1" d="M13.5,16A1.5,1.5,0,1,1,15,14.5,1.5,1.5,0,0,1,13.5,16Zm0-2a.5.5,0,1,0,.5.5A.5.5,0,0,0,13.5,14Z"/>
    <path id="Path_227" data-name="Path 227" class="cls-1" d="M15.5,19H3.5A2.5,2.5,0,0,1,1,16.5V4.5A2.5,2.5,0,0,1,3.5,2h12A2.5,2.5,0,0,1,18,4.5v12A2.5,2.5,0,0,1,15.5,19ZM3.5,3A1.5,1.5,0,0,0,2,4.5v12A1.5,1.5,0,0,0,3.5,18h12A1.5,1.5,0,0,0,17,16.5V4.5A1.5,1.5,0,0,0,15.5,3Z"/>
  </g>
</svg>
