<svg xmlns="http://www.w3.org/2000/svg" viewBox="2109 428 20 10.999">
  <defs>
    <style>
      .cls-1 {
        fill: #6dbeef;
      }
    </style>
  </defs>
  <path id="eye" class="cls-1" d="M19.872,10.166a19.762,19.762,0,0,0-2.956-2.572,16.054,16.054,0,0,0-3.13-1.773A9.87,9.87,0,0,0,10,5a9.87,9.87,0,0,0-3.786.82,16.106,16.106,0,0,0-3.13,1.773A19.828,19.828,0,0,0,.128,10.166a.5.5,0,0,0,0,.669,19.762,19.762,0,0,0,2.956,2.572,16.054,16.054,0,0,0,3.13,1.773A9.87,9.87,0,0,0,10,16a9.87,9.87,0,0,0,3.786-.82,16.106,16.106,0,0,0,3.13-1.773,19.827,19.827,0,0,0,2.956-2.572.5.5,0,0,0,0-.669Zm-7.3-3.728a4,4,0,1,1-5.148,0A8.332,8.332,0,0,1,10,6a8.332,8.332,0,0,1,2.574.438Zm3.743,6.168A11.542,11.542,0,0,1,10,15a11.542,11.542,0,0,1-6.317-2.394A20.014,20.014,0,0,1,1.194,10.5,20.1,20.1,0,0,1,3.683,8.394a16.19,16.19,0,0,1,1.85-1.145,5,5,0,1,0,8.934,0,16.332,16.332,0,0,1,1.85,1.145A20.014,20.014,0,0,1,18.806,10.5,20.1,20.1,0,0,1,16.317,12.606Z" transform="translate(2109 422.999)"/>
</svg>
