<svg xmlns="http://www.w3.org/2000/svg" viewBox="2108 535 20 15">
  <defs>
    <style>
      .cls-1 {
        fill: #6dbeef;
      }
    </style>
  </defs>
  <g id="laptop" transform="translate(2108 532)">
    <path id="Path_36" data-name="Path 36" class="cls-1" d="M3.5,14h13A1.5,1.5,0,0,0,18,12.5v-8A1.5,1.5,0,0,0,16.5,3H3.5A1.5,1.5,0,0,0,2,4.5v8A1.5,1.5,0,0,0,3.5,14ZM3,4.5A.5.5,0,0,1,3.5,4h13a.5.5,0,0,1,.5.5v8a.5.5,0,0,1-.5.5H3.5a.5.5,0,0,1-.5-.5Z"/>
    <path id="Path_37" data-name="Path 37" class="cls-1" d="M19.5,15H.5a.5.5,0,0,0-.5.5v1A1.5,1.5,0,0,0,1.5,18h17A1.5,1.5,0,0,0,20,16.5v-1A.5.5,0,0,0,19.5,15Zm-1,2H1.5a.5.5,0,0,1-.5-.5V16H19v.5A.5.5,0,0,1,18.5,17Z"/>
  </g>
</svg>
