<?xml version="1.0" encoding="utf-8"?>
<!-- Generator: Adobe Illustrator 22.0.0, SVG Export Plug-In . SVG Version: 6.00 Build 0)  -->
<svg version="1.1" id="Capa_1" xmlns="http://www.w3.org/2000/svg" xmlns:xlink="http://www.w3.org/1999/xlink" x="0px" y="0px"
	 viewBox="0 0 161.5 154" style="enable-background:new 0 0 161.5 154;" xml:space="preserve">
<style type="text/css">
	.st0{fill:#FFFFFF;}
	.st1{fill:none;}
	.st2{fill:none;stroke:#FFFFFF;stroke-miterlimit:10;}
</style>
<g>
	<g>
		<path class="st0" d="M10.7,141.9v-30.8H13v28.7h17.7v2.1H10.7z"/>
		<path class="st0" d="M61.8,141.9l-3.8-8.6H40.1l-3.8,8.6H34l14.1-31h2.2l14.1,31H61.8z M49.1,113.4l-8,17.8H57L49.1,113.4z"/>
		<path class="st0" d="M76.5,113.2v28.7h-2.2v-28.7H63.7v-2.1H87v2.1H76.5z"/>
		<path class="st0" d="M113.4,141.9l-3.8-8.6H91.8l-3.8,8.6h-2.3l14.1-31h2.2l14.1,31H113.4z M100.7,113.4l-8,17.8h15.9L100.7,113.4
			z"/>
		<path class="st0" d="M147.6,141.9v-26.7l-11.9,17.7h-0.2l-11.9-17.7v26.7h-2.2v-30.8h2.1l12.1,18.2l12.1-18.2h2.1v30.8H147.6z"/>
	</g>
	<path class="st0" d="M121.4,76.9H92l-4.3,14.8H63l33.7-78.9h20.6l33.3,78.9h-24.1L121.4,76.9z M115.8,60.6l-8.6-23.4l-8.5,23.4
		H115.8z"/>
	<path class="st1" d="M55.9,61.3c-1.6-1.4-4.5-2.1-8.6-2.1H32.4V75h14.9c4,0,6.9-0.7,8.5-2.2c1.6-1.5,2.5-3.4,2.5-5.9
		C58.3,64.6,57.5,62.7,55.9,61.3z"/>
	<path class="st1" d="M54.2,43.1c1.4-1.3,2.1-3.2,2.1-5.6c0-2.3-0.7-4-2.1-5.3c-1.4-1.3-2.9-1.9-6.4-1.9H32.4V45h14.2
		C50.2,45,52.8,44.4,54.2,43.1z"/>
	<path class="st0" d="M65.9,50.3c3.6-1.3,6.3-3,8.1-5.2c2.8-3.3,4.2-7.2,4.2-11.8c0-5.5-2-10.1-5.9-13.8s-9.5-5.6-16.8-5.6H11.9
		v77.8h40.3c1.5,0,4.6,0,8.8-0.2C64.3,84,71.7,67,76.5,55.8C74,53.3,70.5,51.4,65.9,50.3z M32.4,30.3h15.3c3.5,0,5,0.6,6.4,1.9
		c1.4,1.3,2.1,3,2.1,5.3c0,2.4-0.7,4.3-2.1,5.6c-1.4,1.3-4,1.9-7.6,1.9H32.4V30.3z M55.9,72.8c-1.6,1.5-4.5,2.2-8.5,2.2H32.4V59.2
		h14.9c4.1,0,7,0.7,8.6,2.1c1.6,1.4,2.4,3.2,2.4,5.5C58.3,69.3,57.5,71.3,55.9,72.8z"/>
	<line class="st2" x1="11.9" y1="100" x2="151.8" y2="100"/>
	<path class="st2" d="M157.5,153.5H4c-1.9,0-3.5-1.6-3.5-3.5V4c0-1.9,1.6-3.5,3.5-3.5h153.5c1.9,0,3.5,1.6,3.5,3.5v146
		C161,151.9,159.4,153.5,157.5,153.5z"/>
</g>
</svg>
